<svg xmlns="http://www.w3.org/2000/svg" version="1.1" xmlns:xlink="http://www.w3.org/1999/xlink" xmlns:svgjs="http://svgjs.com/svgjs" width="375pt" height="374.999991pt"><svg xmlns="http://www.w3.org/2000/svg" xmlns:xlink="http://www.w3.org/1999/xlink" width="375pt" height="374.999991pt" viewBox="0 0 375 374.999991" version="1.2">
<defs>
<clipPath id="SvgjsClipPath1008">
  <path d="M 117.324219 207.484375 L 192.625 207.484375 L 192.625 337.273438 L 117.324219 337.273438 Z M 117.324219 207.484375 "></path>
</clipPath>
<clipPath id="SvgjsClipPath1007">
  <path d="M 116.460938 32.019531 L 191.765625 32.019531 L 191.765625 107.324219 L 116.460938 107.324219 Z M 116.460938 32.019531 "></path>
</clipPath>
<clipPath id="SvgjsClipPath1006">
  <path d="M 49.011719 203.753906 L 124.316406 203.753906 L 124.316406 279.054688 L 49.011719 279.054688 Z M 49.011719 203.753906 "></path>
</clipPath>
<clipPath id="SvgjsClipPath1005">
  <path d="M 100.738281 113.921875 L 199.917969 113.921875 L 199.917969 213.101562 L 100.738281 213.101562 Z M 100.738281 113.921875 "></path>
</clipPath>
<clipPath id="SvgjsClipPath1004">
  <path d="M 57.035156 84.210938 L 116.421875 84.210938 L 116.421875 143.59375 L 57.035156 143.59375 Z M 57.035156 84.210938 "></path>
</clipPath>
<clipPath id="SvgjsClipPath1003">
  <path d="M 35.34375 144.328125 L 94.730469 144.328125 L 94.730469 203.714844 L 35.34375 203.714844 Z M 35.34375 144.328125 "></path>
</clipPath>
<clipPath id="SvgjsClipPath1002">
  <path d="M 86.746094 279.222656 L 132.050781 279.222656 L 132.050781 324.527344 L 86.746094 324.527344 Z M 86.746094 279.222656 "></path>
</clipPath>
<clipPath id="SvgjsClipPath1001">
  <path d="M 194 32.019531 L 338.882812 32.019531 L 338.882812 333.785156 L 194 333.785156 Z M 194 32.019531 "></path>
</clipPath>
</defs>
<g id="SvgjsG1000">
<g clip-path="url(#clip1)" clip-rule="nonzero">
<path style=" stroke:none;fill-rule:nonzero;fill:rgb(58.428955%,64.709473%,65.098572%);fill-opacity:1;" d="M 119.921875 279.515625 L 136.253906 285.316406 C 136.667969 285.460938 136.992188 285.8125 137.132812 286.265625 C 138 289.085938 139.144531 291.847656 140.527344 294.464844 C 140.746094 294.886719 140.765625 295.371094 140.578125 295.761719 L 133.140625 311.417969 C 132.511719 312.757812 132.726562 314.328125 133.691406 315.410156 C 135.4375 317.386719 137.289062 319.242188 139.191406 320.925781 C 140.253906 321.871094 141.910156 322.089844 143.1875 321.472656 L 158.839844 314.042969 C 159.238281 313.855469 159.746094 313.882812 160.136719 314.082031 C 161.523438 314.824219 162.839844 315.449219 164.164062 316 C 165.558594 316.566406 166.96875 317.066406 168.34375 317.480469 C 168.804688 317.628906 169.15625 317.949219 169.304688 318.371094 L 175.109375 334.710938 C 175.625 336.109375 176.894531 337.0625 178.324219 337.132812 C 179.566406 337.210938 180.851562 337.25 182.140625 337.25 C 183.429688 337.25 184.761719 337.210938 186.117188 337.132812 C 187.585938 337.035156 188.851562 336.078125 189.335938 334.695312 L 195.136719 318.367188 C 195.28125 317.949219 195.632812 317.628906 196.085938 317.484375 C 198.90625 316.617188 201.667969 315.476562 204.285156 314.09375 C 204.703125 313.875 205.183594 313.847656 205.582031 314.042969 L 221.238281 321.476562 C 221.734375 321.710938 222.285156 321.835938 222.832031 321.835938 C 223.722656 321.835938 224.574219 321.511719 225.230469 320.929688 C 227.207031 319.179688 229.0625 317.328125 230.746094 315.429688 C 231.707031 314.351562 231.925781 312.742188 231.292969 311.429688 L 223.863281 295.78125 C 223.671875 295.375 223.6875 294.894531 223.902344 294.480469 C 224.644531 293.09375 225.269531 291.777344 225.816406 290.453125 C 226.386719 289.0625 226.886719 287.648438 227.300781 286.277344 C 227.449219 285.8125 227.769531 285.460938 228.191406 285.316406 L 244.53125 279.507812 C 245.929688 278.992188 246.882812 277.722656 246.953125 276.292969 C 247.109375 273.78125 247.109375 271.234375 246.953125 268.5 C 246.855469 267.03125 245.898438 265.769531 244.515625 265.285156 L 228.183594 259.480469 C 227.769531 259.335938 227.449219 258.988281 227.304688 258.535156 C 226.4375 255.714844 225.296875 252.949219 223.914062 250.335938 C 223.691406 249.910156 223.671875 249.425781 223.859375 249.035156 L 231.296875 233.378906 C 231.929688 232.039062 231.710938 230.472656 230.75 229.386719 C 229 227.410156 227.148438 225.554688 225.25 223.871094 C 224.183594 222.925781 222.527344 222.710938 221.25 223.324219 L 205.597656 230.757812 C 205.199219 230.945312 204.691406 230.917969 204.300781 230.714844 C 202.914062 229.972656 201.597656 229.347656 200.273438 228.800781 C 198.882812 228.230469 197.46875 227.730469 196.097656 227.316406 C 195.632812 227.171875 195.28125 226.847656 195.132812 226.425781 L 189.328125 210.085938 C 188.8125 208.6875 187.542969 207.738281 186.113281 207.664062 C 183.628906 207.507812 181.035156 207.507812 178.320312 207.664062 C 176.851562 207.761719 175.589844 208.722656 175.101562 210.101562 L 169.300781 226.433594 C 169.15625 226.847656 168.804688 227.171875 168.355469 227.3125 C 165.53125 228.179688 162.769531 229.324219 160.152344 230.707031 C 159.734375 230.925781 159.257812 230.949219 158.855469 230.757812 L 143.199219 223.324219 C 141.890625 222.703125 140.265625 222.929688 139.207031 223.871094 C 137.230469 225.617188 135.375 227.46875 133.691406 229.371094 C 132.734375 230.449219 132.515625 232.058594 133.144531 233.367188 L 140.578125 249.019531 C 140.769531 249.421875 140.75 249.902344 140.535156 250.316406 C 139.792969 251.703125 139.167969 253.019531 138.621094 254.34375 C 138.050781 255.738281 137.550781 257.148438 137.136719 258.519531 C 136.992188 258.984375 136.667969 259.335938 136.246094 259.484375 L 119.90625 265.289062 C 118.507812 265.804688 117.558594 267.074219 117.484375 268.503906 C 117.328125 271.019531 117.328125 273.5625 117.484375 276.296875 C 117.582031 277.765625 118.542969 279.03125 119.921875 279.515625 Z M 156.007812 261.535156 C 160.414062 250.894531 170.710938 244.019531 182.238281 244.019531 C 185.960938 244.019531 189.613281 244.75 193.082031 246.1875 C 207.53125 252.171875 214.414062 268.804688 208.433594 283.265625 C 204.023438 293.902344 193.726562 300.777344 182.199219 300.777344 C 178.476562 300.777344 174.824219 300.046875 171.355469 298.613281 C 156.90625 292.625 150.023438 275.992188 156.007812 261.535156 Z M 156.007812 261.535156 "></path>
</g>
<g clip-path="url(#clip2)" clip-rule="nonzero">
<path style=" stroke:none;fill-rule:nonzero;fill:rgb(58.428955%,64.709473%,65.098572%);fill-opacity:1;" d="M 117.96875 73.8125 L 127.445312 77.179688 C 127.683594 77.261719 127.871094 77.464844 127.953125 77.726562 C 128.457031 79.363281 129.121094 80.96875 129.921875 82.484375 C 130.050781 82.730469 130.0625 83.011719 129.953125 83.238281 L 125.640625 92.320312 C 125.273438 93.097656 125.398438 94.007812 125.957031 94.636719 C 126.972656 95.785156 128.046875 96.863281 129.148438 97.835938 C 129.765625 98.386719 130.726562 98.511719 131.46875 98.15625 L 140.546875 93.84375 C 140.78125 93.734375 141.074219 93.75 141.300781 93.867188 C 142.105469 94.296875 142.871094 94.660156 143.636719 94.980469 C 144.445312 95.308594 145.265625 95.597656 146.0625 95.839844 C 146.332031 95.925781 146.535156 96.113281 146.617188 96.355469 L 149.988281 105.835938 C 150.285156 106.648438 151.023438 107.199219 151.851562 107.242188 C 152.574219 107.285156 153.320312 107.308594 154.066406 107.308594 C 154.8125 107.308594 155.589844 107.285156 156.375 107.242188 C 157.226562 107.183594 157.960938 106.628906 158.242188 105.828125 L 161.609375 96.351562 C 161.691406 96.113281 161.894531 95.925781 162.15625 95.839844 C 163.792969 95.339844 165.398438 94.675781 166.914062 93.875 C 167.15625 93.746094 167.433594 93.730469 167.667969 93.84375 L 176.75 98.15625 C 177.039062 98.292969 177.359375 98.363281 177.675781 98.363281 C 178.191406 98.363281 178.6875 98.175781 179.066406 97.839844 C 180.214844 96.824219 181.292969 95.75 182.265625 94.648438 C 182.824219 94.023438 182.953125 93.089844 182.585938 92.328125 L 178.273438 83.25 C 178.164062 83.011719 178.171875 82.734375 178.296875 82.496094 C 178.726562 81.691406 179.089844 80.925781 179.410156 80.160156 C 179.738281 79.351562 180.027344 78.53125 180.269531 77.734375 C 180.355469 77.464844 180.539062 77.261719 180.785156 77.175781 L 190.265625 73.808594 C 191.078125 73.507812 191.628906 72.773438 191.671875 71.941406 C 191.761719 70.484375 191.761719 69.007812 191.671875 67.421875 C 191.613281 66.570312 191.058594 65.835938 190.257812 65.554688 L 180.78125 62.1875 C 180.539062 62.105469 180.355469 61.902344 180.269531 61.640625 C 179.769531 60.003906 179.105469 58.398438 178.300781 56.882812 C 178.175781 56.636719 178.164062 56.355469 178.273438 56.128906 L 182.585938 47.046875 C 182.953125 46.269531 182.828125 45.359375 182.269531 44.730469 C 181.253906 43.582031 180.179688 42.503906 179.078125 41.527344 C 178.460938 40.980469 177.5 40.855469 176.757812 41.210938 L 167.675781 45.523438 C 167.445312 45.632812 167.152344 45.617188 166.925781 45.5 C 166.117188 45.066406 165.355469 44.707031 164.585938 44.386719 C 163.78125 44.058594 162.960938 43.765625 162.164062 43.527344 C 161.894531 43.441406 161.691406 43.253906 161.605469 43.011719 L 158.238281 33.53125 C 157.9375 32.71875 157.203125 32.167969 156.371094 32.125 C 154.929688 32.035156 153.425781 32.035156 151.851562 32.125 C 151 32.179688 150.265625 32.738281 149.984375 33.539062 L 146.617188 43.015625 C 146.535156 43.253906 146.332031 43.441406 146.066406 43.523438 C 144.429688 44.027344 142.828125 44.691406 141.308594 45.492188 C 141.066406 45.621094 140.789062 45.636719 140.558594 45.523438 L 131.472656 41.210938 C 130.714844 40.851562 129.769531 40.980469 129.15625 41.527344 C 128.011719 42.542969 126.933594 43.617188 125.957031 44.71875 C 125.402344 45.34375 125.273438 46.277344 125.640625 47.039062 L 129.953125 56.117188 C 130.0625 56.351562 130.050781 56.632812 129.929688 56.871094 C 129.496094 57.675781 129.132812 58.441406 128.816406 59.207031 C 128.488281 60.015625 128.195312 60.835938 127.957031 61.632812 C 127.871094 61.902344 127.683594 62.105469 127.441406 62.1875 L 117.960938 65.558594 C 117.148438 65.855469 116.597656 66.59375 116.554688 67.421875 C 116.464844 68.882812 116.464844 70.359375 116.554688 71.945312 C 116.609375 72.796875 117.167969 73.53125 117.96875 73.8125 Z M 138.902344 63.378906 C 141.460938 57.207031 147.433594 53.21875 154.125 53.21875 C 156.285156 53.21875 158.402344 53.640625 160.417969 54.476562 C 168.796875 57.945312 172.792969 67.597656 169.320312 75.988281 C 166.761719 82.160156 160.789062 86.148438 154.101562 86.148438 C 151.941406 86.148438 149.824219 85.726562 147.808594 84.890625 C 139.425781 81.417969 135.433594 71.769531 138.902344 63.378906 Z M 138.902344 63.378906 "></path>
</g>
<g clip-path="url(#clip3)" clip-rule="nonzero">
<path style=" stroke:none;fill-rule:nonzero;fill:rgb(58.428955%,64.709473%,65.098572%);fill-opacity:1;" d="M 50.523438 245.546875 L 59.996094 248.910156 C 60.238281 248.996094 60.425781 249.199219 60.507812 249.460938 C 61.007812 251.097656 61.671875 252.699219 62.476562 254.21875 C 62.601562 254.464844 62.613281 254.746094 62.503906 254.972656 L 58.191406 264.054688 C 57.824219 264.832031 57.949219 265.742188 58.507812 266.371094 C 59.523438 267.519531 60.597656 268.59375 61.699219 269.570312 C 62.316406 270.121094 63.277344 270.246094 64.019531 269.890625 L 73.101562 265.578125 C 73.332031 265.46875 73.625 265.484375 73.851562 265.601562 C 74.660156 266.03125 75.421875 266.394531 76.191406 266.710938 C 77 267.042969 77.816406 267.332031 78.613281 267.574219 C 78.882812 267.65625 79.085938 267.84375 79.171875 268.089844 L 82.539062 277.570312 C 82.839844 278.382812 83.574219 278.933594 84.40625 278.976562 C 85.128906 279.019531 85.871094 279.042969 86.621094 279.042969 C 87.367188 279.042969 88.140625 279.019531 88.925781 278.976562 C 89.78125 278.917969 90.511719 278.363281 90.792969 277.558594 L 94.160156 268.085938 C 94.246094 267.84375 94.445312 267.65625 94.710938 267.574219 C 96.347656 267.074219 97.949219 266.410156 99.46875 265.605469 C 99.710938 265.480469 99.988281 265.464844 100.222656 265.578125 L 109.304688 269.890625 C 109.589844 270.027344 109.910156 270.097656 110.226562 270.097656 C 110.746094 270.097656 111.238281 269.910156 111.621094 269.574219 C 112.765625 268.558594 113.84375 267.484375 114.820312 266.382812 C 115.375 265.757812 115.503906 264.824219 115.136719 264.0625 L 110.824219 254.980469 C 110.714844 254.746094 110.726562 254.46875 110.851562 254.230469 C 111.28125 253.421875 111.644531 252.660156 111.960938 251.890625 C 112.289062 251.085938 112.582031 250.265625 112.820312 249.46875 C 112.90625 249.199219 113.09375 248.996094 113.339844 248.910156 L 122.816406 245.542969 C 123.628906 245.242188 124.183594 244.507812 124.222656 243.675781 C 124.316406 242.21875 124.316406 240.742188 124.222656 239.15625 C 124.167969 238.304688 123.609375 237.570312 122.808594 237.289062 L 113.332031 233.921875 C 113.09375 233.835938 112.90625 233.636719 112.824219 233.371094 C 112.320312 231.734375 111.65625 230.132812 110.855469 228.613281 C 110.726562 228.371094 110.714844 228.089844 110.824219 227.863281 L 115.140625 218.777344 C 115.503906 218 115.382812 217.089844 114.820312 216.460938 C 113.808594 215.316406 112.734375 214.238281 111.628906 213.261719 C 111.011719 212.714844 110.050781 212.589844 109.308594 212.945312 L 100.230469 217.257812 C 100 217.367188 99.703125 217.347656 99.476562 217.230469 C 98.671875 216.800781 97.910156 216.4375 97.140625 216.121094 C 96.332031 215.792969 95.511719 215.5 94.714844 215.261719 C 94.445312 215.175781 94.246094 214.988281 94.160156 214.742188 L 90.789062 205.265625 C 90.492188 204.453125 89.753906 203.902344 88.925781 203.859375 C 87.484375 203.769531 85.976562 203.769531 84.402344 203.859375 C 83.550781 203.914062 82.816406 204.472656 82.535156 205.273438 L 79.171875 214.75 C 79.085938 214.988281 78.882812 215.175781 78.621094 215.257812 C 76.984375 215.761719 75.382812 216.425781 73.863281 217.226562 C 73.621094 217.355469 73.34375 217.367188 73.109375 217.257812 L 64.027344 212.941406 C 63.265625 212.585938 62.324219 212.714844 61.710938 213.261719 C 60.5625 214.273438 59.488281 215.347656 58.511719 216.453125 C 57.953125 217.078125 57.828125 218.011719 58.191406 218.773438 L 62.503906 227.851562 C 62.617188 228.085938 62.605469 228.363281 62.480469 228.605469 C 62.050781 229.410156 61.6875 230.171875 61.371094 230.941406 C 61.039062 231.75 60.75 232.570312 60.507812 233.363281 C 60.425781 233.636719 60.238281 233.835938 59.992188 233.921875 L 50.511719 237.292969 C 49.699219 237.589844 49.148438 238.328125 49.105469 239.15625 C 49.015625 240.617188 49.015625 242.09375 49.105469 243.679688 C 49.164062 244.53125 49.71875 245.265625 50.523438 245.546875 Z M 71.457031 235.113281 C 74.015625 228.941406 79.988281 224.953125 86.675781 224.953125 C 88.835938 224.953125 90.953125 225.375 92.96875 226.207031 C 101.351562 229.679688 105.34375 239.332031 101.875 247.71875 C 99.316406 253.894531 93.34375 257.882812 86.65625 257.882812 C 84.492188 257.882812 82.375 257.457031 80.363281 256.625 C 71.980469 253.152344 67.984375 243.503906 71.457031 235.113281 Z M 71.457031 235.113281 "></path>
</g>
<g clip-path="url(#clip4)" clip-rule="nonzero">
<path style=" stroke:none;fill-rule:nonzero;fill:rgb(58.428955%,64.709473%,65.098572%);fill-opacity:1;" d="M 102.722656 168.964844 L 115.203125 173.398438 C 115.519531 173.511719 115.765625 173.777344 115.875 174.125 C 116.539062 176.277344 117.410156 178.390625 118.46875 180.390625 C 118.636719 180.710938 118.652344 181.082031 118.507812 181.382812 L 112.828125 193.34375 C 112.34375 194.367188 112.507812 195.566406 113.246094 196.394531 C 114.582031 197.90625 115.996094 199.324219 117.449219 200.609375 C 118.261719 201.332031 119.523438 201.5 120.503906 201.027344 L 132.460938 195.351562 C 132.769531 195.207031 133.15625 195.226562 133.453125 195.382812 C 134.515625 195.949219 135.519531 196.425781 136.53125 196.84375 C 137.597656 197.277344 138.675781 197.660156 139.722656 197.976562 C 140.078125 198.089844 140.347656 198.335938 140.457031 198.660156 L 144.894531 211.144531 C 145.289062 212.214844 146.257812 212.941406 147.351562 212.996094 C 148.300781 213.054688 149.285156 213.085938 150.269531 213.085938 C 151.253906 213.085938 152.273438 213.054688 153.308594 212.996094 C 154.429688 212.921875 155.394531 212.1875 155.765625 211.132812 L 160.199219 198.652344 C 160.3125 198.335938 160.578125 198.089844 160.921875 197.980469 C 163.078125 197.320312 165.191406 196.445312 167.191406 195.386719 C 167.507812 195.222656 167.875 195.203125 168.183594 195.347656 L 180.144531 201.03125 C 180.523438 201.210938 180.945312 201.304688 181.359375 201.304688 C 182.042969 201.304688 182.695312 201.058594 183.195312 200.613281 C 184.707031 199.277344 186.125 197.859375 187.410156 196.410156 C 188.144531 195.585938 188.3125 194.355469 187.828125 193.351562 L 182.148438 181.394531 C 182.003906 181.085938 182.019531 180.71875 182.179688 180.402344 C 182.75 179.339844 183.226562 178.335938 183.644531 177.324219 C 184.078125 176.261719 184.460938 175.179688 184.777344 174.132812 C 184.890625 173.777344 185.136719 173.511719 185.457031 173.398438 L 197.945312 168.960938 C 199.015625 168.566406 199.742188 167.597656 199.792969 166.503906 C 199.914062 164.582031 199.914062 162.636719 199.792969 160.550781 C 199.722656 159.425781 198.988281 158.460938 197.933594 158.089844 L 185.453125 153.65625 C 185.136719 153.546875 184.890625 153.277344 184.78125 152.933594 C 184.117188 150.777344 183.246094 148.667969 182.1875 146.667969 C 182.019531 146.34375 182.003906 145.972656 182.148438 145.675781 L 187.828125 133.710938 C 188.3125 132.6875 188.148438 131.488281 187.410156 130.660156 C 186.074219 129.152344 184.660156 127.730469 183.210938 126.445312 C 182.398438 125.722656 181.128906 125.558594 180.152344 126.027344 L 168.195312 131.707031 C 167.886719 131.851562 167.5 131.828125 167.203125 131.675781 C 166.140625 131.109375 165.136719 130.628906 164.125 130.210938 C 163.058594 129.777344 161.980469 129.394531 160.933594 129.078125 C 160.578125 128.96875 160.308594 128.71875 160.199219 128.398438 L 155.761719 115.914062 C 155.367188 114.84375 154.398438 114.117188 153.304688 114.0625 C 151.40625 113.941406 149.421875 113.941406 147.347656 114.0625 C 146.226562 114.136719 145.261719 114.867188 144.890625 115.925781 L 140.457031 128.402344 C 140.347656 128.71875 140.078125 128.96875 139.734375 129.078125 C 137.578125 129.738281 135.464844 130.613281 133.46875 131.667969 C 133.148438 131.835938 132.78125 131.855469 132.472656 131.707031 L 120.511719 126.027344 C 119.511719 125.554688 118.269531 125.726562 117.460938 126.445312 C 115.949219 127.78125 114.53125 129.195312 113.246094 130.648438 C 112.511719 131.472656 112.347656 132.703125 112.828125 133.703125 L 118.507812 145.660156 C 118.652344 145.972656 118.640625 146.335938 118.476562 146.652344 C 117.910156 147.714844 117.429688 148.71875 117.011719 149.730469 C 116.578125 150.796875 116.195312 151.875 115.878906 152.921875 C 115.765625 153.277344 115.519531 153.546875 115.199219 153.660156 L 102.714844 158.09375 C 101.644531 158.488281 100.917969 159.460938 100.863281 160.550781 C 100.742188 162.472656 100.742188 164.417969 100.863281 166.507812 C 100.933594 167.628906 101.667969 168.59375 102.722656 168.964844 Z M 130.296875 155.226562 C 133.664062 147.09375 141.535156 141.84375 150.34375 141.84375 C 153.1875 141.84375 155.976562 142.398438 158.628906 143.496094 C 169.671875 148.070312 174.929688 160.78125 170.359375 171.832031 C 166.992188 179.960938 159.121094 185.214844 150.3125 185.214844 C 147.46875 185.214844 144.679688 184.65625 142.027344 183.558594 C 130.984375 178.984375 125.726562 166.273438 130.296875 155.226562 Z M 130.296875 155.226562 "></path>
</g>
<g clip-path="url(#clip5)" clip-rule="nonzero">
<path style=" stroke:none;fill-rule:nonzero;fill:rgb(58.428955%,64.709473%,65.098572%);fill-opacity:1;" d="M 58.226562 117.167969 L 65.695312 119.820312 C 65.886719 119.886719 66.035156 120.046875 66.097656 120.253906 C 66.496094 121.546875 67.019531 122.808594 67.652344 124.007812 C 67.753906 124.199219 67.761719 124.421875 67.675781 124.601562 L 64.273438 131.765625 C 63.984375 132.378906 64.082031 133.09375 64.523438 133.589844 C 65.324219 134.496094 66.171875 135.34375 67.039062 136.113281 C 67.527344 136.546875 68.285156 136.648438 68.871094 136.367188 L 76.03125 132.964844 C 76.214844 132.878906 76.445312 132.890625 76.625 132.984375 C 77.257812 133.324219 77.863281 133.609375 78.46875 133.859375 C 79.105469 134.121094 79.75 134.351562 80.378906 134.539062 C 80.589844 134.605469 80.75 134.753906 80.820312 134.945312 L 83.476562 142.421875 C 83.710938 143.0625 84.292969 143.496094 84.945312 143.53125 C 85.515625 143.566406 86.101562 143.585938 86.691406 143.585938 C 87.28125 143.585938 87.890625 143.566406 88.511719 143.53125 C 89.183594 143.484375 89.761719 143.046875 89.984375 142.414062 L 92.640625 134.941406 C 92.707031 134.753906 92.863281 134.605469 93.070312 134.539062 C 94.363281 134.144531 95.625 133.621094 96.824219 132.988281 C 97.015625 132.890625 97.234375 132.875 97.417969 132.964844 L 104.582031 136.367188 C 104.808594 136.472656 105.058594 136.53125 105.308594 136.53125 C 105.71875 136.53125 106.109375 136.382812 106.40625 136.117188 C 107.3125 135.316406 108.160156 134.46875 108.929688 133.601562 C 109.371094 133.105469 109.472656 132.371094 109.183594 131.769531 L 105.78125 124.609375 C 105.695312 124.425781 105.703125 124.203125 105.800781 124.015625 C 106.140625 123.378906 106.425781 122.777344 106.675781 122.171875 C 106.9375 121.535156 107.167969 120.890625 107.355469 120.261719 C 107.421875 120.046875 107.570312 119.890625 107.761719 119.820312 L 115.238281 117.164062 C 115.878906 116.929688 116.3125 116.347656 116.347656 115.695312 C 116.417969 114.542969 116.417969 113.378906 116.347656 112.128906 C 116.300781 111.457031 115.863281 110.878906 115.230469 110.65625 L 107.757812 108 C 107.570312 107.933594 107.421875 107.773438 107.355469 107.566406 C 106.960938 106.277344 106.4375 105.011719 105.804688 103.816406 C 105.703125 103.621094 105.695312 103.402344 105.78125 103.222656 L 109.183594 96.058594 C 109.472656 95.445312 109.375 94.726562 108.933594 94.230469 C 108.132812 93.328125 107.285156 92.476562 106.414062 91.707031 C 105.929688 91.277344 105.171875 91.175781 104.585938 91.457031 L 97.425781 94.859375 C 97.242188 94.945312 97.011719 94.933594 96.832031 94.839844 C 96.195312 94.5 95.59375 94.214844 94.988281 93.964844 C 94.351562 93.703125 93.707031 93.472656 93.078125 93.285156 C 92.863281 93.21875 92.703125 93.070312 92.636719 92.878906 L 89.980469 85.402344 C 89.746094 84.761719 89.164062 84.324219 88.511719 84.292969 C 87.375 84.222656 86.1875 84.222656 84.945312 84.292969 C 84.273438 84.335938 83.695312 84.777344 83.472656 85.410156 L 80.816406 92.878906 C 80.75 93.070312 80.589844 93.21875 80.382812 93.28125 C 79.09375 93.679688 77.828125 94.203125 76.632812 94.835938 C 76.441406 94.933594 76.222656 94.945312 76.039062 94.859375 L 68.875 91.457031 C 68.277344 91.175781 67.53125 91.277344 67.046875 91.707031 C 66.144531 92.507812 65.292969 93.355469 64.523438 94.222656 C 64.085938 94.71875 63.984375 95.453125 64.273438 96.054688 L 67.675781 103.214844 C 67.761719 103.398438 67.753906 103.617188 67.65625 103.808594 C 67.316406 104.441406 67.03125 105.046875 66.78125 105.652344 C 66.519531 106.289062 66.289062 106.933594 66.101562 107.5625 C 66.035156 107.773438 65.886719 107.933594 65.695312 108 L 58.21875 110.660156 C 57.578125 110.894531 57.140625 111.476562 57.109375 112.128906 C 57.039062 113.28125 57.039062 114.445312 57.109375 115.695312 C 57.152344 116.367188 57.59375 116.945312 58.226562 117.167969 Z M 74.734375 108.941406 C 76.75 104.074219 81.460938 100.925781 86.738281 100.925781 C 88.441406 100.925781 90.109375 101.261719 91.699219 101.917969 C 98.308594 104.65625 101.460938 112.265625 98.722656 118.882812 C 96.703125 123.75 91.992188 126.894531 86.71875 126.894531 C 85.015625 126.894531 83.34375 126.5625 81.757812 125.90625 C 75.148438 123.167969 71.996094 115.554688 74.734375 108.941406 Z M 74.734375 108.941406 "></path>
</g>
<g clip-path="url(#clip6)" clip-rule="nonzero">
<path style=" stroke:none;fill-rule:nonzero;fill:rgb(58.428955%,64.709473%,65.098572%);fill-opacity:1;" d="M 36.535156 177.285156 L 44.003906 179.941406 C 44.195312 180.007812 44.34375 180.167969 44.410156 180.375 C 44.804688 181.664062 45.328125 182.929688 45.960938 184.125 C 46.0625 184.320312 46.070312 184.539062 45.984375 184.71875 L 42.582031 191.882812 C 42.292969 192.496094 42.390625 193.214844 42.832031 193.710938 C 43.632812 194.613281 44.480469 195.464844 45.347656 196.234375 C 45.835938 196.664062 46.59375 196.765625 47.179688 196.484375 L 54.339844 193.082031 C 54.523438 192.996094 54.753906 193.011719 54.933594 193.101562 C 55.570312 193.441406 56.171875 193.726562 56.777344 193.976562 C 57.414062 194.238281 58.058594 194.46875 58.6875 194.65625 C 58.898438 194.722656 59.058594 194.871094 59.128906 195.066406 L 61.785156 202.539062 C 62.019531 203.179688 62.601562 203.617188 63.253906 203.648438 C 63.824219 203.683594 64.410156 203.703125 65 203.703125 C 65.589844 203.703125 66.199219 203.683594 66.820312 203.648438 C 67.492188 203.605469 68.070312 203.164062 68.292969 202.53125 L 70.949219 195.0625 C 71.015625 194.871094 71.175781 194.722656 71.382812 194.660156 C 72.671875 194.261719 73.9375 193.738281 75.132812 193.105469 C 75.324219 193.007812 75.542969 192.996094 75.726562 193.082031 L 82.890625 196.484375 C 83.117188 196.59375 83.371094 196.648438 83.617188 196.648438 C 84.027344 196.648438 84.417969 196.5 84.71875 196.234375 C 85.621094 195.433594 86.46875 194.585938 87.242188 193.71875 C 87.679688 193.222656 87.78125 192.488281 87.492188 191.886719 L 84.089844 184.726562 C 84.003906 184.542969 84.011719 184.324219 84.109375 184.132812 C 84.449219 183.5 84.734375 182.898438 84.984375 182.289062 C 85.246094 181.652344 85.476562 181.007812 85.664062 180.378906 C 85.730469 180.167969 85.878906 180.007812 86.070312 179.941406 L 93.546875 177.28125 C 94.1875 177.046875 94.625 176.464844 94.65625 175.8125 C 94.726562 174.660156 94.726562 173.496094 94.65625 172.246094 C 94.613281 171.574219 94.171875 170.996094 93.539062 170.773438 L 86.070312 168.121094 C 85.878906 168.054688 85.730469 167.894531 85.664062 167.6875 C 85.269531 166.394531 84.746094 165.132812 84.113281 163.933594 C 84.011719 163.742188 84.003906 163.519531 84.089844 163.339844 L 87.492188 156.175781 C 87.78125 155.5625 87.683594 154.847656 87.242188 154.351562 C 86.441406 153.445312 85.59375 152.597656 84.726562 151.828125 C 84.238281 151.394531 83.480469 151.292969 82.894531 151.574219 L 75.734375 154.976562 C 75.550781 155.0625 75.320312 155.050781 75.140625 154.957031 C 74.503906 154.617188 73.902344 154.332031 73.296875 154.082031 C 72.660156 153.820312 72.015625 153.59375 71.386719 153.402344 C 71.175781 153.335938 71.015625 153.1875 70.945312 152.996094 L 68.289062 145.519531 C 68.054688 144.878906 67.472656 144.445312 66.820312 144.410156 C 65.683594 144.339844 64.496094 144.339844 63.253906 144.410156 C 62.582031 144.457031 62.003906 144.894531 61.78125 145.527344 L 59.125 153 C 59.058594 153.1875 58.898438 153.335938 58.691406 153.402344 C 57.402344 153.796875 56.136719 154.320312 54.941406 154.953125 C 54.75 155.054688 54.53125 155.066406 54.347656 154.976562 L 47.183594 151.574219 C 46.585938 151.292969 45.839844 151.394531 45.359375 151.824219 C 44.453125 152.625 43.605469 153.472656 42.835938 154.34375 C 42.394531 154.835938 42.292969 155.570312 42.582031 156.171875 L 45.984375 163.332031 C 46.070312 163.515625 46.0625 163.738281 45.964844 163.925781 C 45.625 164.5625 45.339844 165.164062 45.089844 165.769531 C 44.828125 166.40625 44.597656 167.050781 44.410156 167.679688 C 44.34375 167.894531 44.195312 168.050781 44.003906 168.121094 L 36.527344 170.777344 C 35.886719 171.011719 35.449219 171.59375 35.417969 172.246094 C 35.347656 173.398438 35.347656 174.5625 35.417969 175.8125 C 35.460938 176.484375 35.902344 177.0625 36.535156 177.285156 Z M 53.042969 169.058594 C 55.058594 164.191406 59.769531 161.046875 65.046875 161.046875 C 66.75 161.046875 68.417969 161.378906 70.007812 162.035156 C 76.617188 164.773438 79.769531 172.386719 77.03125 179 C 75.015625 183.867188 70.304688 187.015625 65.027344 187.015625 C 63.324219 187.015625 61.65625 186.679688 60.066406 186.023438 C 53.457031 183.285156 50.304688 175.675781 53.042969 169.058594 Z M 53.042969 169.058594 "></path>
</g>
<g clip-path="url(#clip7)" clip-rule="nonzero">
<path style=" stroke:none;fill-rule:nonzero;fill:rgb(58.428955%,64.709473%,65.098572%);fill-opacity:1;" d="M 87.65625 304.367188 L 93.355469 306.390625 C 93.5 306.441406 93.613281 306.5625 93.664062 306.722656 C 93.964844 307.707031 94.363281 308.671875 94.847656 309.582031 C 94.921875 309.730469 94.929688 309.898438 94.863281 310.035156 L 92.269531 315.5 C 92.050781 315.96875 92.125 316.515625 92.460938 316.894531 C 93.070312 317.585938 93.71875 318.234375 94.378906 318.820312 C 94.753906 319.152344 95.328125 319.226562 95.777344 319.011719 L 101.238281 316.417969 C 101.378906 316.351562 101.554688 316.363281 101.691406 316.433594 C 102.175781 316.691406 102.636719 316.910156 103.097656 317.101562 C 103.585938 317.296875 104.078125 317.472656 104.554688 317.617188 C 104.71875 317.667969 104.839844 317.78125 104.890625 317.929688 L 106.917969 323.632812 C 107.097656 324.121094 107.542969 324.453125 108.039062 324.476562 C 108.476562 324.503906 108.921875 324.519531 109.375 324.519531 C 109.824219 324.519531 110.289062 324.503906 110.761719 324.476562 C 111.273438 324.445312 111.714844 324.109375 111.882812 323.625 L 113.910156 317.925781 C 113.960938 317.78125 114.082031 317.667969 114.238281 317.621094 C 115.226562 317.316406 116.1875 316.917969 117.101562 316.433594 C 117.25 316.359375 117.414062 316.351562 117.554688 316.417969 L 123.019531 319.011719 C 123.195312 319.09375 123.386719 319.136719 123.574219 319.136719 C 123.886719 319.136719 124.183594 319.023438 124.414062 318.820312 C 125.105469 318.210938 125.75 317.566406 126.339844 316.902344 C 126.671875 316.523438 126.75 315.964844 126.53125 315.503906 L 123.9375 310.042969 C 123.871094 309.902344 123.875 309.734375 123.949219 309.589844 C 124.210938 309.105469 124.429688 308.644531 124.617188 308.183594 C 124.816406 307.699219 124.992188 307.203125 125.136719 306.726562 C 125.1875 306.5625 125.300781 306.441406 125.449219 306.390625 L 131.152344 304.363281 C 131.640625 304.183594 131.972656 303.742188 131.996094 303.242188 C 132.050781 302.363281 132.050781 301.476562 131.996094 300.519531 C 131.960938 300.007812 131.628906 299.566406 131.144531 299.398438 L 125.445312 297.371094 C 125.300781 297.320312 125.1875 297.199219 125.136719 297.042969 C 124.835938 296.058594 124.4375 295.09375 123.953125 294.179688 C 123.875 294.03125 123.871094 293.863281 123.9375 293.726562 L 126.53125 288.261719 C 126.75 287.792969 126.675781 287.246094 126.339844 286.867188 C 125.730469 286.179688 125.082031 285.53125 124.417969 284.945312 C 124.046875 284.613281 123.46875 284.539062 123.023438 284.75 L 117.5625 287.347656 C 117.421875 287.410156 117.246094 287.402344 117.109375 287.332031 C 116.625 287.074219 116.164062 286.855469 115.703125 286.664062 C 115.214844 286.464844 114.722656 286.289062 114.246094 286.144531 C 114.082031 286.09375 113.960938 285.980469 113.910156 285.835938 L 111.882812 280.132812 C 111.703125 279.644531 111.257812 279.3125 110.757812 279.285156 C 109.894531 279.230469 108.988281 279.230469 108.039062 279.285156 C 107.527344 279.320312 107.085938 279.65625 106.917969 280.136719 L 104.890625 285.835938 C 104.839844 285.980469 104.71875 286.09375 104.558594 286.144531 C 103.574219 286.445312 102.613281 286.847656 101.699219 287.328125 C 101.550781 287.40625 101.386719 287.414062 101.246094 287.347656 L 95.78125 284.75 C 95.324219 284.535156 94.753906 284.613281 94.386719 284.941406 C 93.695312 285.550781 93.050781 286.199219 92.460938 286.863281 C 92.125 287.238281 92.050781 287.800781 92.269531 288.257812 L 94.863281 293.722656 C 94.929688 293.863281 94.925781 294.027344 94.851562 294.171875 C 94.589844 294.660156 94.371094 295.117188 94.183594 295.578125 C 93.984375 296.066406 93.808594 296.558594 93.664062 297.039062 C 93.613281 297.199219 93.5 297.320312 93.351562 297.375 L 87.648438 299.398438 C 87.160156 299.578125 86.828125 300.023438 86.804688 300.523438 C 86.75 301.398438 86.75 302.289062 86.804688 303.242188 C 86.839844 303.753906 87.171875 304.195312 87.65625 304.367188 Z M 100.25 298.089844 C 101.789062 294.375 105.382812 291.976562 109.40625 291.976562 C 110.707031 291.976562 111.980469 292.230469 113.191406 292.730469 C 118.234375 294.820312 120.640625 300.625 118.550781 305.675781 C 117.011719 309.386719 113.417969 311.789062 109.394531 311.789062 C 108.09375 311.789062 106.820312 311.53125 105.609375 311.03125 C 100.566406 308.941406 98.160156 303.136719 100.25 298.089844 Z M 100.25 298.089844 "></path>
</g>
<g clip-path="url(#clip8)" clip-rule="nonzero">
<path style=" stroke:none;fill-rule:nonzero;fill:rgb(52.159119%,69.799805%,92.158508%);fill-opacity:1;" d="M 249.554688 191.601562 C 246.636719 169.613281 249.378906 165.882812 259.492188 150.558594 C 246.121094 163.46875 237.039062 163.632812 217.945312 165.96875 C 243.128906 168.054688 243.554688 171.953125 249.554688 191.601562 Z M 218.964844 182.425781 C 219.054688 189.527344 218.199219 195.9375 214.941406 200 C 200.816406 218.101562 197.734375 205.71875 196.613281 195.5 C 193.871094 171.601562 192.425781 148.394531 197.644531 125.878906 C 201.757812 108.214844 208.523438 123.890625 208.523438 125.878906 C 209.039062 154.191406 235.503906 137.910156 240.472656 141.46875 C 247.066406 146.320312 249.378906 146.484375 248.777344 145.011719 C 248.007812 143.113281 242.097656 138.351562 234.648438 137.746094 C 207.066406 135.582031 205.785156 103.539062 240.988281 113.320312 C 243.304688 109.335938 222.136719 108.304688 222.222656 106.394531 C 222.828125 88.816406 215.882812 85.875 216.3125 87.347656 C 220.261719 100.761719 217.859375 111.585938 209.207031 112.113281 C 199.269531 112.804688 199.179688 108.390625 197.898438 100.421875 C 195.417969 85.523438 195.242188 63.359375 201.496094 50.449219 C 206.890625 39.285156 207.835938 42.578125 218.375 50.023438 C 232.246094 59.804688 230.109375 71.15625 230.964844 63.613281 C 229.933594 49.933594 224.199219 48.375 217.683594 44.65625 C 208.953125 39.636719 213.570312 38.15625 219.910156 35.390625 C 238.675781 27.253906 255.203125 34.09375 270.019531 53.65625 C 278.585938 65.09375 275.679688 59.113281 271.390625 65.785156 C 266.082031 73.921875 273.101562 79.894531 259.578125 79.203125 C 251.691406 78.859375 246.660156 62.03125 231.558594 84.941406 C 231.21875 85.414062 231.042969 85.710938 231.050781 85.699219 C 231.21875 85.4375 231.382812 85.195312 231.558594 84.941406 C 233.617188 82.101562 242.03125 72.746094 255.542969 84.480469 C 261.378906 89.597656 278.15625 77.039062 279.867188 102.410156 C 280.042969 105.4375 291.4375 92.628906 277.476562 80.9375 C 276.359375 79.980469 276.359375 61.800781 283.390625 75.832031 C 297.691406 77.820312 309.164062 88.039062 316.621094 101.542969 C 324.757812 116.351562 326.042969 126.394531 318.417969 141.984375 C 314.558594 149.777344 309.941406 155.671875 302.144531 146.054688 C 294.695312 136.878906 289.550781 118.171875 271.742188 128.394531 C 270.710938 129.777344 279.792969 123.804688 290.835938 138.261719 C 294.09375 142.585938 296.230469 145.363281 297.867188 147.351562 C 302.230469 152.71875 314.054688 155.058594 296.054688 153.070312 C 283.816406 151.601562 271.226562 152.554688 271.226562 184.5 C 271.566406 203.984375 243.984375 206.761719 241.84375 196.28125 C 241.84375 216.632812 278.332031 211.265625 277.816406 182.335938 C 277.566406 164.160156 283.816406 156.1875 304.117188 157.921875 C 286.128906 172.117188 306.257812 177.320312 308.230469 185.632812 C 311.476562 199.574219 298.03125 202.601562 297.867188 203.117188 C 304.371094 206.675781 319.789062 189.527344 311.050781 180.691406 C 305.0625 174.71875 303.855469 169.527344 305.226562 165.628906 C 308.910156 155.671875 323.816406 159.21875 328.949219 166.058594 C 331.261719 169.175781 332.632812 173.675781 334.605469 180.351562 C 340.34375 199.914062 340.945312 226.5 332.46875 247.105469 C 328.695312 256.292969 325.527344 265.472656 314.820312 258.972656 C 310.027344 256.117188 310.621094 249.882812 306.257812 244.601562 C 298.371094 235.074219 282.960938 232.386719 277.050781 243.910156 C 267.628906 262.003906 259.492188 248.148438 258.285156 247.632812 C 258.207031 247.632812 259.0625 259.324219 267.539062 257.679688 C 274.734375 256.292969 280.042969 243.988281 287.414062 243.988281 C 321.074219 243.988281 288.09375 269.972656 288.09375 281.0625 C 288.09375 283.476562 287.753906 286.855469 291.175781 288.589844 C 290.582031 282.960938 294.949219 270.839844 302.570312 267.546875 C 318.847656 260.355469 318.933594 273.957031 315.25 283.3125 C 300.773438 311.359375 291.089844 320.109375 281.164062 322.621094 C 269.679688 326.34375 257.769531 325.914062 257 307.035156 C 256.484375 294.738281 252.03125 286.855469 240.210938 290.753906 C 231.730469 293.609375 214.777344 274.988281 225.140625 291.105469 C 233.792969 302.621094 251.867188 290.414062 247.492188 302.445312 C 245.015625 309.636719 241.328125 307.902344 233.707031 307.386719 C 224.449219 306.683594 217.429688 305.738281 235.164062 313.621094 C 244.585938 317.859375 248.609375 301.148438 252.296875 319.679688 C 253.492188 326.082031 261.289062 318.121094 259.917969 331.625 C 259.578125 331.710938 259.316406 331.800781 258.976562 331.886719 C 218.109375 340.890625 202.867188 316.652344 199.785156 286.253906 C 197.21875 260.105469 204.753906 280.535156 213.832031 268.929688 C 219.570312 261.664062 225.304688 243.910156 238.761719 255.945312 C 238.839844 249.28125 223.59375 241.484375 218.109375 251.265625 C 215.972656 255.769531 213.832031 259.238281 211.773438 261.75 C 202.4375 273.519531 198.929688 268.414062 196.867188 258.28125 C 194.816406 247.886719 195.417969 237.839844 197.21875 227.882812 C 202.351562 199.574219 233.957031 213.515625 237.554688 228.324219 C 239.191406 206.324219 214.777344 209.011719 217.089844 206.234375 C 225.910156 194.027344 218.964844 180.867188 218.964844 182.425781 "></path>
</g>
</g>
</svg><style>@media (prefers-color-scheme: light) { :root { filter: none; } }
</style></svg>