<?xml version="1.0" encoding="UTF-8"?>
<svg xmlns="http://www.w3.org/2000/svg" xmlns:xlink="http://www.w3.org/1999/xlink" width="150pt" height="100pt" viewBox="0 0 150 100" version="1.1">
<defs>
<clipPath id="clip1">
  <path d="M 30.058594 54.042969 L 42.359375 54.042969 L 42.359375 75.253906 L 30.058594 75.253906 Z M 30.058594 54.042969 "/>
</clipPath>
<clipPath id="clip2">
  <path d="M 29.917969 25.367188 L 42.21875 25.367188 L 42.21875 37.675781 L 29.917969 37.675781 Z M 29.917969 25.367188 "/>
</clipPath>
<clipPath id="clip3">
  <path d="M 18.898438 53.433594 L 31.199219 53.433594 L 31.199219 65.742188 L 18.898438 65.742188 Z M 18.898438 53.433594 "/>
</clipPath>
<clipPath id="clip4">
  <path d="M 27.347656 38.753906 L 43.550781 38.753906 L 43.550781 54.960938 L 27.347656 54.960938 Z M 27.347656 38.753906 "/>
</clipPath>
<clipPath id="clip5">
  <path d="M 20.207031 33.898438 L 29.910156 33.898438 L 29.910156 43.601562 L 20.207031 43.601562 Z M 20.207031 33.898438 "/>
</clipPath>
<clipPath id="clip6">
  <path d="M 16.664062 43.722656 L 26.367188 43.722656 L 26.367188 53.425781 L 16.664062 53.425781 Z M 16.664062 43.722656 "/>
</clipPath>
<clipPath id="clip7">
  <path d="M 25.0625 65.769531 L 32.464844 65.769531 L 32.464844 73.171875 L 25.0625 73.171875 Z M 25.0625 65.769531 "/>
</clipPath>
<clipPath id="clip8">
  <path d="M 42.539062 25.367188 L 66.253906 25.367188 L 66.253906 74.683594 L 42.539062 74.683594 Z M 42.539062 25.367188 "/>
</clipPath>
</defs>
<g id="surface1">
<g clip-path="url(#clip1)" clip-rule="nonzero">
<path style=" stroke:none;fill-rule:nonzero;fill:rgb(58.431373%,64.705882%,65.098039%);fill-opacity:1;" d="M 30.484375 65.816406 L 33.148438 66.765625 C 33.21875 66.789062 33.269531 66.84375 33.292969 66.917969 C 33.4375 67.378906 33.621094 67.832031 33.847656 68.257812 C 33.882812 68.328125 33.886719 68.40625 33.855469 68.472656 L 32.640625 71.027344 C 32.539062 71.25 32.574219 71.503906 32.730469 71.683594 C 33.015625 72.003906 33.320312 72.308594 33.628906 72.582031 C 33.804688 72.738281 34.074219 72.773438 34.28125 72.671875 L 36.839844 71.457031 C 36.90625 71.425781 36.988281 71.433594 37.050781 71.464844 C 37.277344 71.585938 37.492188 71.6875 37.710938 71.777344 C 37.9375 71.871094 38.167969 71.953125 38.394531 72.019531 C 38.46875 72.042969 38.527344 72.097656 38.550781 72.164062 L 39.5 74.835938 C 39.582031 75.066406 39.789062 75.21875 40.023438 75.230469 C 40.226562 75.246094 40.4375 75.25 40.648438 75.25 C 40.855469 75.25 41.074219 75.246094 41.296875 75.230469 C 41.535156 75.214844 41.742188 75.058594 41.820312 74.832031 L 42.769531 72.164062 C 42.792969 72.097656 42.851562 72.042969 42.925781 72.019531 C 43.386719 71.878906 43.835938 71.691406 44.265625 71.464844 C 44.332031 71.429688 44.410156 71.425781 44.476562 71.457031 L 47.035156 72.671875 C 47.113281 72.710938 47.207031 72.730469 47.292969 72.730469 C 47.441406 72.730469 47.578125 72.679688 47.6875 72.582031 C 48.007812 72.296875 48.3125 71.996094 48.585938 71.683594 C 48.742188 71.507812 48.78125 71.246094 48.675781 71.03125 L 47.460938 68.472656 C 47.429688 68.40625 47.433594 68.328125 47.46875 68.261719 C 47.589844 68.035156 47.691406 67.820312 47.78125 67.601562 C 47.875 67.375 47.957031 67.144531 48.023438 66.921875 C 48.046875 66.84375 48.101562 66.789062 48.171875 66.761719 L 50.839844 65.8125 C 51.066406 65.730469 51.222656 65.523438 51.234375 65.289062 C 51.261719 64.878906 51.261719 64.460938 51.234375 64.015625 C 51.21875 63.773438 51.0625 63.570312 50.835938 63.488281 L 48.167969 62.542969 C 48.101562 62.519531 48.046875 62.460938 48.023438 62.386719 C 47.882812 61.925781 47.695312 61.472656 47.472656 61.046875 C 47.433594 60.976562 47.433594 60.898438 47.460938 60.835938 L 48.675781 58.277344 C 48.78125 58.058594 48.746094 57.800781 48.585938 57.625 C 48.300781 57.300781 48 56.996094 47.6875 56.722656 C 47.515625 56.566406 47.246094 56.53125 47.035156 56.632812 L 44.480469 57.847656 C 44.414062 57.878906 44.332031 57.875 44.265625 57.839844 C 44.039062 57.71875 43.824219 57.617188 43.609375 57.527344 C 43.382812 57.433594 43.152344 57.351562 42.925781 57.285156 C 42.851562 57.261719 42.792969 57.207031 42.769531 57.140625 L 41.820312 54.46875 C 41.738281 54.242188 41.527344 54.085938 41.296875 54.074219 C 40.890625 54.046875 40.464844 54.046875 40.023438 54.074219 C 39.78125 54.089844 39.578125 54.246094 39.496094 54.472656 L 38.550781 57.140625 C 38.527344 57.207031 38.46875 57.261719 38.394531 57.285156 C 37.933594 57.425781 37.480469 57.613281 37.054688 57.839844 C 36.988281 57.875 36.90625 57.878906 36.84375 57.847656 L 34.285156 56.632812 C 34.070312 56.53125 33.804688 56.566406 33.632812 56.722656 C 33.308594 57.007812 33.007812 57.308594 32.730469 57.621094 C 32.574219 57.796875 32.539062 58.058594 32.640625 58.273438 L 33.855469 60.832031 C 33.886719 60.898438 33.882812 60.976562 33.851562 61.042969 C 33.726562 61.269531 33.625 61.484375 33.539062 61.703125 C 33.445312 61.929688 33.363281 62.160156 33.296875 62.386719 C 33.269531 62.460938 33.21875 62.519531 33.148438 62.542969 L 30.480469 63.492188 C 30.25 63.574219 30.097656 63.78125 30.085938 64.015625 C 30.058594 64.425781 30.058594 64.84375 30.085938 65.289062 C 30.101562 65.53125 30.257812 65.734375 30.484375 65.816406 Z M 36.378906 62.875 C 37.097656 61.136719 38.777344 60.015625 40.664062 60.015625 C 41.269531 60.015625 41.867188 60.132812 42.433594 60.367188 C 44.796875 61.347656 45.917969 64.066406 44.941406 66.429688 C 44.222656 68.167969 42.539062 69.289062 40.65625 69.289062 C 40.046875 69.289062 39.453125 69.171875 38.882812 68.9375 C 36.523438 67.957031 35.398438 65.238281 36.378906 62.875 Z M 36.378906 62.875 "/>
</g>
<g clip-path="url(#clip2)" clip-rule="nonzero">
<path style=" stroke:none;fill-rule:nonzero;fill:rgb(58.431373%,64.705882%,65.098039%);fill-opacity:1;" d="M 30.164062 32.199219 L 31.710938 32.75 C 31.75 32.761719 31.78125 32.796875 31.792969 32.839844 C 31.875 33.105469 31.984375 33.367188 32.117188 33.617188 C 32.136719 33.65625 32.140625 33.703125 32.121094 33.738281 L 31.417969 35.222656 C 31.355469 35.351562 31.375 35.5 31.46875 35.601562 C 31.632812 35.789062 31.808594 35.964844 31.988281 36.125 C 32.089844 36.214844 32.246094 36.234375 32.367188 36.175781 L 33.851562 35.472656 C 33.890625 35.453125 33.9375 35.457031 33.976562 35.476562 C 34.105469 35.546875 34.230469 35.605469 34.355469 35.65625 C 34.488281 35.710938 34.621094 35.757812 34.753906 35.796875 C 34.796875 35.8125 34.828125 35.84375 34.84375 35.882812 L 35.394531 37.433594 C 35.441406 37.5625 35.5625 37.65625 35.699219 37.660156 C 35.816406 37.667969 35.9375 37.671875 36.0625 37.671875 C 36.183594 37.671875 36.308594 37.667969 36.4375 37.660156 C 36.578125 37.652344 36.695312 37.5625 36.742188 37.429688 L 37.292969 35.882812 C 37.304688 35.84375 37.339844 35.8125 37.382812 35.796875 C 37.648438 35.714844 37.910156 35.609375 38.160156 35.476562 C 38.199219 35.457031 38.246094 35.453125 38.28125 35.472656 L 39.765625 36.175781 C 39.8125 36.199219 39.867188 36.210938 39.917969 36.210938 C 40 36.210938 40.082031 36.179688 40.144531 36.125 C 40.332031 35.960938 40.507812 35.785156 40.667969 35.601562 C 40.757812 35.5 40.777344 35.347656 40.71875 35.222656 L 40.015625 33.742188 C 39.996094 33.703125 40 33.65625 40.019531 33.617188 C 40.089844 33.484375 40.148438 33.359375 40.199219 33.234375 C 40.253906 33.105469 40.300781 32.96875 40.339844 32.839844 C 40.355469 32.796875 40.386719 32.761719 40.425781 32.75 L 41.972656 32.199219 C 42.105469 32.148438 42.195312 32.027344 42.203125 31.894531 C 42.21875 31.65625 42.21875 31.414062 42.203125 31.152344 C 42.195312 31.015625 42.105469 30.894531 41.972656 30.847656 L 40.425781 30.296875 C 40.386719 30.285156 40.355469 30.25 40.339844 30.207031 C 40.257812 29.941406 40.152344 29.679688 40.019531 29.429688 C 40 29.390625 39.996094 29.34375 40.015625 29.308594 L 40.71875 27.824219 C 40.78125 27.695312 40.757812 27.546875 40.667969 27.445312 C 40.503906 27.257812 40.328125 27.082031 40.144531 26.921875 C 40.046875 26.832031 39.886719 26.8125 39.765625 26.871094 L 38.285156 27.574219 C 38.246094 27.59375 38.199219 27.589844 38.160156 27.570312 C 38.027344 27.5 37.90625 27.441406 37.777344 27.390625 C 37.648438 27.335938 37.511719 27.289062 37.382812 27.25 C 37.339844 27.234375 37.304688 27.203125 37.292969 27.164062 L 36.742188 25.613281 C 36.691406 25.480469 36.574219 25.390625 36.4375 25.386719 C 36.203125 25.371094 35.957031 25.371094 35.699219 25.386719 C 35.558594 25.394531 35.441406 25.484375 35.394531 25.617188 L 34.84375 27.164062 C 34.828125 27.203125 34.796875 27.234375 34.753906 27.25 C 34.488281 27.332031 34.222656 27.4375 33.976562 27.570312 C 33.9375 27.589844 33.890625 27.59375 33.851562 27.574219 L 32.371094 26.871094 C 32.246094 26.8125 32.089844 26.832031 31.992188 26.921875 C 31.804688 27.085938 31.628906 27.261719 31.46875 27.445312 C 31.378906 27.546875 31.355469 27.699219 31.417969 27.824219 L 32.121094 29.308594 C 32.140625 29.34375 32.136719 29.390625 32.117188 29.429688 C 32.046875 29.5625 31.988281 29.6875 31.933594 29.8125 C 31.882812 29.945312 31.835938 30.078125 31.792969 30.207031 C 31.78125 30.25 31.75 30.285156 31.710938 30.300781 L 30.160156 30.847656 C 30.03125 30.898438 29.9375 31.019531 29.933594 31.152344 C 29.917969 31.394531 29.917969 31.632812 29.933594 31.894531 C 29.941406 32.03125 30.03125 32.152344 30.164062 32.199219 Z M 33.582031 30.492188 C 34 29.484375 34.976562 28.832031 36.070312 28.832031 C 36.421875 28.832031 36.769531 28.902344 37.097656 29.039062 C 38.46875 29.605469 39.121094 31.183594 38.550781 32.554688 C 38.136719 33.5625 37.160156 34.214844 36.066406 34.214844 C 35.714844 34.214844 35.367188 34.144531 35.039062 34.007812 C 33.667969 33.441406 33.015625 31.863281 33.582031 30.492188 Z M 33.582031 30.492188 "/>
</g>
<g clip-path="url(#clip3)" clip-rule="nonzero">
<path style=" stroke:none;fill-rule:nonzero;fill:rgb(58.431373%,64.705882%,65.098039%);fill-opacity:1;" d="M 19.144531 60.265625 L 20.691406 60.8125 C 20.730469 60.828125 20.761719 60.859375 20.777344 60.902344 C 20.859375 61.171875 20.964844 61.433594 21.097656 61.679688 C 21.117188 61.722656 21.121094 61.765625 21.101562 61.804688 L 20.398438 63.289062 C 20.335938 63.417969 20.359375 63.566406 20.449219 63.667969 C 20.613281 63.855469 20.789062 64.03125 20.972656 64.191406 C 21.070312 64.28125 21.226562 64.300781 21.351562 64.242188 L 22.832031 63.539062 C 22.871094 63.519531 22.917969 63.523438 22.957031 63.542969 C 23.089844 63.613281 23.210938 63.671875 23.339844 63.722656 C 23.46875 63.777344 23.605469 63.824219 23.734375 63.863281 C 23.777344 63.878906 23.8125 63.910156 23.824219 63.949219 L 24.375 65.496094 C 24.425781 65.628906 24.542969 65.71875 24.679688 65.726562 C 24.796875 65.734375 24.917969 65.738281 25.042969 65.738281 C 25.164062 65.738281 25.289062 65.734375 25.417969 65.726562 C 25.558594 65.71875 25.675781 65.628906 25.722656 65.496094 L 26.273438 63.949219 C 26.289062 63.910156 26.320312 63.878906 26.363281 63.863281 C 26.628906 63.78125 26.894531 63.671875 27.140625 63.542969 C 27.179688 63.523438 27.226562 63.519531 27.265625 63.539062 L 28.746094 64.242188 C 28.792969 64.265625 28.847656 64.277344 28.898438 64.277344 C 28.984375 64.277344 29.0625 64.246094 29.125 64.191406 C 29.3125 64.023438 29.488281 63.847656 29.648438 63.667969 C 29.738281 63.566406 29.761719 63.414062 29.699219 63.289062 L 28.996094 61.804688 C 28.976562 61.769531 28.980469 61.722656 29 61.683594 C 29.070312 61.550781 29.128906 61.425781 29.183594 61.300781 C 29.234375 61.167969 29.285156 61.035156 29.324219 60.90625 C 29.335938 60.859375 29.367188 60.828125 29.40625 60.8125 L 30.957031 60.261719 C 31.089844 60.214844 31.179688 60.09375 31.183594 59.957031 C 31.199219 59.71875 31.199219 59.480469 31.183594 59.21875 C 31.175781 59.082031 31.085938 58.960938 30.953125 58.914062 L 29.40625 58.363281 C 29.367188 58.351562 29.335938 58.316406 29.324219 58.273438 C 29.242188 58.007812 29.132812 57.746094 29 57.496094 C 28.980469 57.457031 28.976562 57.410156 28.996094 57.375 L 29.699219 55.890625 C 29.761719 55.761719 29.738281 55.613281 29.648438 55.511719 C 29.484375 55.324219 29.308594 55.148438 29.128906 54.988281 C 29.027344 54.898438 28.871094 54.878906 28.75 54.9375 L 27.265625 55.640625 C 27.226562 55.660156 27.179688 55.65625 27.140625 55.636719 C 27.011719 55.566406 26.886719 55.507812 26.761719 55.457031 C 26.628906 55.402344 26.496094 55.355469 26.363281 55.316406 C 26.320312 55.300781 26.289062 55.269531 26.273438 55.230469 L 25.722656 53.679688 C 25.675781 53.546875 25.554688 53.457031 25.417969 53.453125 C 25.183594 53.4375 24.9375 53.4375 24.679688 53.453125 C 24.539062 53.460938 24.421875 53.550781 24.375 53.683594 L 23.824219 55.230469 C 23.8125 55.269531 23.777344 55.300781 23.734375 55.3125 C 23.46875 55.398438 23.207031 55.503906 22.957031 55.636719 C 22.917969 55.65625 22.871094 55.660156 22.835938 55.640625 L 21.351562 54.9375 C 21.226562 54.878906 21.074219 54.898438 20.972656 54.988281 C 20.785156 55.152344 20.609375 55.328125 20.449219 55.507812 C 20.359375 55.613281 20.339844 55.765625 20.398438 55.886719 L 21.101562 57.371094 C 21.121094 57.410156 21.117188 57.457031 21.097656 57.496094 C 21.027344 57.628906 20.96875 57.75 20.917969 57.878906 C 20.863281 58.007812 20.816406 58.144531 20.777344 58.273438 C 20.761719 58.316406 20.730469 58.351562 20.691406 58.363281 L 19.144531 58.914062 C 19.011719 58.964844 18.921875 59.085938 18.914062 59.21875 C 18.898438 59.457031 18.898438 59.699219 18.914062 59.960938 C 18.921875 60.097656 19.015625 60.21875 19.144531 60.265625 Z M 22.5625 58.558594 C 22.980469 57.550781 23.957031 56.898438 25.050781 56.898438 C 25.402344 56.898438 25.75 56.96875 26.078125 57.105469 C 27.449219 57.671875 28.101562 59.25 27.535156 60.621094 C 27.117188 61.628906 26.140625 62.28125 25.046875 62.28125 C 24.695312 62.28125 24.347656 62.210938 24.019531 62.074219 C 22.648438 61.507812 21.996094 59.929688 22.5625 58.558594 Z M 22.5625 58.558594 "/>
</g>
<g clip-path="url(#clip4)" clip-rule="nonzero">
<path style=" stroke:none;fill-rule:nonzero;fill:rgb(58.431373%,64.705882%,65.098039%);fill-opacity:1;" d="M 27.671875 47.75 L 29.710938 48.472656 C 29.761719 48.492188 29.804688 48.535156 29.820312 48.589844 C 29.929688 48.945312 30.070312 49.289062 30.246094 49.617188 C 30.273438 49.667969 30.273438 49.730469 30.25 49.777344 L 29.324219 51.734375 C 29.246094 51.898438 29.269531 52.097656 29.390625 52.230469 C 29.609375 52.476562 29.839844 52.710938 30.078125 52.921875 C 30.210938 53.039062 30.417969 53.066406 30.578125 52.988281 L 32.53125 52.0625 C 32.582031 52.039062 32.644531 52.039062 32.691406 52.066406 C 32.867188 52.160156 33.03125 52.238281 33.195312 52.304688 C 33.371094 52.375 33.546875 52.4375 33.71875 52.488281 C 33.773438 52.507812 33.820312 52.550781 33.835938 52.601562 L 34.5625 54.640625 C 34.625 54.816406 34.785156 54.9375 34.964844 54.945312 C 35.117188 54.953125 35.277344 54.960938 35.441406 54.960938 C 35.601562 54.960938 35.765625 54.953125 35.9375 54.945312 C 36.121094 54.933594 36.277344 54.8125 36.339844 54.640625 L 37.0625 52.601562 C 37.082031 52.550781 37.125 52.507812 37.179688 52.492188 C 37.53125 52.382812 37.878906 52.238281 38.203125 52.066406 C 38.257812 52.039062 38.316406 52.035156 38.367188 52.0625 L 40.320312 52.988281 C 40.382812 53.019531 40.453125 53.035156 40.519531 53.035156 C 40.628906 53.035156 40.738281 52.992188 40.820312 52.921875 C 41.066406 52.703125 41.296875 52.472656 41.507812 52.234375 C 41.628906 52.097656 41.65625 51.898438 41.574219 51.734375 L 40.648438 49.78125 C 40.625 49.730469 40.625 49.667969 40.652344 49.617188 C 40.746094 49.445312 40.824219 49.28125 40.894531 49.113281 C 40.964844 48.941406 41.027344 48.765625 41.078125 48.59375 C 41.097656 48.535156 41.136719 48.492188 41.1875 48.472656 L 43.230469 47.75 C 43.402344 47.683594 43.523438 47.523438 43.53125 47.347656 C 43.550781 47.03125 43.550781 46.714844 43.53125 46.375 C 43.519531 46.191406 43.398438 46.03125 43.226562 45.972656 L 41.1875 45.246094 C 41.136719 45.230469 41.097656 45.183594 41.078125 45.128906 C 40.96875 44.777344 40.828125 44.429688 40.65625 44.105469 C 40.628906 44.050781 40.625 43.992188 40.648438 43.941406 L 41.574219 41.988281 C 41.65625 41.820312 41.628906 41.625 41.507812 41.488281 C 41.289062 41.242188 41.058594 41.011719 40.820312 40.800781 C 40.6875 40.683594 40.480469 40.65625 40.324219 40.730469 L 38.367188 41.660156 C 38.316406 41.683594 38.253906 41.679688 38.207031 41.65625 C 38.035156 41.5625 37.867188 41.484375 37.703125 41.414062 C 37.53125 41.34375 37.351562 41.28125 37.183594 41.230469 C 37.125 41.210938 37.082031 41.171875 37.0625 41.117188 L 36.335938 39.078125 C 36.273438 38.902344 36.113281 38.785156 35.9375 38.777344 C 35.625 38.757812 35.300781 38.757812 34.964844 38.777344 C 34.78125 38.789062 34.621094 38.910156 34.5625 39.082031 L 33.835938 41.121094 C 33.820312 41.171875 33.773438 41.210938 33.71875 41.230469 C 33.367188 41.339844 33.023438 41.480469 32.695312 41.652344 C 32.644531 41.679688 32.582031 41.683594 32.53125 41.660156 L 30.578125 40.730469 C 30.414062 40.65625 30.210938 40.683594 30.082031 40.800781 C 29.832031 41.019531 29.601562 41.25 29.390625 41.488281 C 29.273438 41.621094 29.246094 41.824219 29.324219 41.984375 L 30.25 43.941406 C 30.273438 43.992188 30.273438 44.050781 30.246094 44.101562 C 30.152344 44.277344 30.074219 44.441406 30.007812 44.605469 C 29.9375 44.78125 29.875 44.957031 29.820312 45.128906 C 29.804688 45.183594 29.761719 45.230469 29.710938 45.246094 L 27.671875 45.972656 C 27.496094 46.035156 27.378906 46.195312 27.367188 46.375 C 27.347656 46.6875 27.347656 47.003906 27.367188 47.347656 C 27.378906 47.53125 27.5 47.6875 27.671875 47.75 Z M 32.175781 45.503906 C 32.726562 44.175781 34.011719 43.316406 35.453125 43.316406 C 35.917969 43.316406 36.371094 43.40625 36.804688 43.585938 C 38.609375 44.335938 39.46875 46.410156 38.722656 48.21875 C 38.171875 49.546875 36.886719 50.402344 35.449219 50.402344 C 34.980469 50.402344 34.527344 50.3125 34.09375 50.132812 C 32.289062 49.386719 31.429688 47.308594 32.175781 45.503906 Z M 32.175781 45.503906 "/>
</g>
<g clip-path="url(#clip5)" clip-rule="nonzero">
<path style=" stroke:none;fill-rule:nonzero;fill:rgb(58.431373%,64.705882%,65.098039%);fill-opacity:1;" d="M 20.402344 39.285156 L 21.625 39.71875 C 21.65625 39.726562 21.679688 39.753906 21.6875 39.789062 C 21.753906 40 21.839844 40.207031 21.941406 40.402344 C 21.960938 40.433594 21.960938 40.46875 21.945312 40.5 L 21.390625 41.667969 C 21.34375 41.769531 21.359375 41.886719 21.433594 41.96875 C 21.5625 42.117188 21.703125 42.253906 21.84375 42.378906 C 21.921875 42.449219 22.046875 42.46875 22.140625 42.421875 L 23.3125 41.867188 C 23.339844 41.851562 23.378906 41.855469 23.410156 41.867188 C 23.511719 41.925781 23.609375 41.972656 23.710938 42.011719 C 23.8125 42.054688 23.917969 42.089844 24.023438 42.121094 C 24.058594 42.132812 24.082031 42.15625 24.09375 42.1875 L 24.527344 43.410156 C 24.566406 43.515625 24.660156 43.585938 24.769531 43.59375 C 24.859375 43.597656 24.957031 43.601562 25.054688 43.601562 C 25.148438 43.601562 25.25 43.597656 25.351562 43.59375 C 25.460938 43.585938 25.554688 43.511719 25.589844 43.410156 L 26.023438 42.1875 C 26.035156 42.15625 26.0625 42.132812 26.097656 42.121094 C 26.308594 42.058594 26.511719 41.972656 26.707031 41.871094 C 26.738281 41.851562 26.777344 41.851562 26.804688 41.867188 L 27.976562 42.421875 C 28.011719 42.4375 28.054688 42.449219 28.09375 42.449219 C 28.160156 42.449219 28.226562 42.425781 28.273438 42.378906 C 28.421875 42.25 28.5625 42.109375 28.6875 41.96875 C 28.757812 41.886719 28.773438 41.769531 28.726562 41.671875 L 28.171875 40.5 C 28.15625 40.46875 28.160156 40.433594 28.175781 40.402344 C 28.230469 40.300781 28.277344 40.199219 28.320312 40.101562 C 28.359375 39.996094 28.398438 39.890625 28.429688 39.789062 C 28.441406 39.753906 28.464844 39.726562 28.496094 39.71875 L 29.71875 39.285156 C 29.820312 39.246094 29.894531 39.148438 29.898438 39.042969 C 29.910156 38.855469 29.910156 38.664062 29.898438 38.460938 C 29.890625 38.351562 29.820312 38.253906 29.714844 38.21875 L 28.496094 37.785156 C 28.464844 37.773438 28.441406 37.75 28.429688 37.714844 C 28.363281 37.503906 28.28125 37.296875 28.175781 37.101562 C 28.160156 37.070312 28.15625 37.035156 28.171875 37.003906 L 28.726562 35.835938 C 28.773438 35.734375 28.757812 35.617188 28.6875 35.535156 C 28.554688 35.386719 28.417969 35.25 28.277344 35.121094 C 28.195312 35.050781 28.074219 35.035156 27.976562 35.082031 L 26.808594 35.636719 C 26.777344 35.652344 26.738281 35.648438 26.710938 35.632812 C 26.605469 35.578125 26.507812 35.53125 26.410156 35.492188 C 26.304688 35.449219 26.199219 35.410156 26.097656 35.378906 C 26.0625 35.371094 26.035156 35.34375 26.023438 35.3125 L 25.589844 34.09375 C 25.550781 33.988281 25.457031 33.917969 25.351562 33.910156 C 25.164062 33.898438 24.972656 33.898438 24.769531 33.910156 C 24.65625 33.917969 24.5625 33.988281 24.527344 34.09375 L 24.09375 35.316406 C 24.082031 35.34375 24.058594 35.371094 24.023438 35.378906 C 23.8125 35.445312 23.605469 35.53125 23.410156 35.632812 C 23.378906 35.648438 23.34375 35.652344 23.3125 35.636719 L 22.144531 35.082031 C 22.046875 35.035156 21.921875 35.050781 21.84375 35.121094 C 21.695312 35.253906 21.558594 35.390625 21.433594 35.535156 C 21.359375 35.613281 21.34375 35.734375 21.390625 35.832031 L 21.945312 37.003906 C 21.960938 37.035156 21.960938 37.070312 21.945312 37.101562 C 21.886719 37.203125 21.839844 37.300781 21.800781 37.402344 C 21.757812 37.507812 21.71875 37.609375 21.691406 37.714844 C 21.679688 37.75 21.65625 37.773438 21.625 37.785156 L 20.402344 38.21875 C 20.296875 38.257812 20.226562 38.351562 20.222656 38.460938 C 20.207031 38.648438 20.207031 38.839844 20.222656 39.042969 C 20.226562 39.152344 20.300781 39.246094 20.402344 39.285156 Z M 23.101562 37.9375 C 23.429688 37.144531 24.199219 36.628906 25.0625 36.628906 C 25.339844 36.628906 25.613281 36.683594 25.871094 36.792969 C 26.953125 37.238281 27.464844 38.484375 27.019531 39.5625 C 26.691406 40.359375 25.917969 40.875 25.058594 40.875 C 24.78125 40.875 24.507812 40.820312 24.246094 40.710938 C 23.167969 40.265625 22.652344 39.019531 23.101562 37.9375 Z M 23.101562 37.9375 "/>
</g>
<g clip-path="url(#clip6)" clip-rule="nonzero">
<path style=" stroke:none;fill-rule:nonzero;fill:rgb(58.431373%,64.705882%,65.098039%);fill-opacity:1;" d="M 16.859375 49.109375 L 18.078125 49.542969 C 18.109375 49.554688 18.136719 49.578125 18.144531 49.613281 C 18.210938 49.824219 18.296875 50.03125 18.398438 50.226562 C 18.414062 50.257812 18.417969 50.292969 18.402344 50.324219 L 17.847656 51.492188 C 17.800781 51.59375 17.816406 51.710938 17.886719 51.792969 C 18.019531 51.941406 18.15625 52.078125 18.300781 52.203125 C 18.378906 52.277344 18.503906 52.292969 18.597656 52.246094 L 19.769531 51.691406 C 19.796875 51.675781 19.835938 51.679688 19.867188 51.691406 C 19.96875 51.75 20.066406 51.796875 20.167969 51.835938 C 20.269531 51.878906 20.375 51.917969 20.480469 51.949219 C 20.511719 51.957031 20.539062 51.980469 20.550781 52.015625 L 20.984375 53.234375 C 21.023438 53.339844 21.117188 53.410156 21.222656 53.417969 C 21.316406 53.421875 21.414062 53.425781 21.511719 53.425781 C 21.605469 53.425781 21.707031 53.421875 21.808594 53.417969 C 21.917969 53.410156 22.011719 53.335938 22.046875 53.234375 L 22.480469 52.015625 C 22.492188 51.980469 22.519531 51.957031 22.550781 51.949219 C 22.761719 51.882812 22.96875 51.796875 23.164062 51.695312 C 23.195312 51.675781 23.230469 51.675781 23.261719 51.691406 L 24.433594 52.246094 C 24.46875 52.265625 24.511719 52.273438 24.550781 52.273438 C 24.617188 52.273438 24.683594 52.25 24.730469 52.207031 C 24.878906 52.074219 25.015625 51.9375 25.144531 51.792969 C 25.214844 51.714844 25.230469 51.59375 25.183594 51.496094 L 24.628906 50.324219 C 24.613281 50.292969 24.617188 50.257812 24.632812 50.226562 C 24.6875 50.125 24.734375 50.027344 24.773438 49.925781 C 24.816406 49.824219 24.855469 49.714844 24.886719 49.613281 C 24.898438 49.578125 24.921875 49.554688 24.953125 49.542969 L 26.171875 49.109375 C 26.277344 49.070312 26.347656 48.972656 26.355469 48.867188 C 26.367188 48.679688 26.367188 48.488281 26.355469 48.285156 C 26.347656 48.175781 26.277344 48.082031 26.171875 48.042969 L 24.953125 47.609375 C 24.921875 47.601562 24.898438 47.574219 24.886719 47.539062 C 24.820312 47.328125 24.734375 47.121094 24.632812 46.925781 C 24.617188 46.894531 24.613281 46.859375 24.628906 46.828125 L 25.183594 45.660156 C 25.230469 45.558594 25.214844 45.441406 25.144531 45.359375 C 25.011719 45.210938 24.875 45.074219 24.730469 44.949219 C 24.652344 44.878906 24.527344 44.859375 24.433594 44.90625 L 23.261719 45.460938 C 23.234375 45.476562 23.195312 45.476562 23.167969 45.460938 C 23.0625 45.402344 22.964844 45.359375 22.867188 45.316406 C 22.761719 45.273438 22.65625 45.238281 22.554688 45.207031 C 22.519531 45.195312 22.492188 45.171875 22.480469 45.136719 L 22.046875 43.917969 C 22.007812 43.8125 21.914062 43.742188 21.808594 43.734375 C 21.621094 43.722656 21.425781 43.722656 21.222656 43.734375 C 21.113281 43.742188 21.019531 43.816406 20.984375 43.917969 L 20.550781 45.140625 C 20.539062 45.171875 20.511719 45.195312 20.480469 45.207031 C 20.269531 45.269531 20.0625 45.355469 19.867188 45.457031 C 19.835938 45.476562 19.800781 45.476562 19.769531 45.460938 L 18.597656 44.90625 C 18.5 44.859375 18.378906 44.878906 18.300781 44.949219 C 18.152344 45.078125 18.015625 45.21875 17.886719 45.359375 C 17.816406 45.441406 17.800781 45.558594 17.847656 45.660156 L 18.402344 46.828125 C 18.417969 46.859375 18.417969 46.894531 18.398438 46.925781 C 18.34375 47.027344 18.296875 47.128906 18.257812 47.226562 C 18.214844 47.332031 18.175781 47.4375 18.144531 47.539062 C 18.136719 47.574219 18.109375 47.601562 18.078125 47.609375 L 16.859375 48.042969 C 16.753906 48.082031 16.683594 48.179688 16.675781 48.285156 C 16.664062 48.472656 16.664062 48.664062 16.675781 48.867188 C 16.683594 48.976562 16.757812 49.070312 16.859375 49.109375 Z M 19.554688 47.765625 C 19.886719 46.96875 20.65625 46.453125 21.515625 46.453125 C 21.796875 46.453125 22.070312 46.507812 22.328125 46.617188 C 23.40625 47.0625 23.921875 48.308594 23.476562 49.390625 C 23.144531 50.183594 22.375 50.699219 21.515625 50.699219 C 21.234375 50.699219 20.964844 50.644531 20.703125 50.535156 C 19.625 50.089844 19.109375 48.84375 19.554688 47.765625 Z M 19.554688 47.765625 "/>
</g>
<g clip-path="url(#clip7)" clip-rule="nonzero">
<path style=" stroke:none;fill-rule:nonzero;fill:rgb(58.431373%,64.705882%,65.098039%);fill-opacity:1;" d="M 25.210938 69.875 L 26.140625 70.207031 C 26.167969 70.214844 26.183594 70.234375 26.191406 70.261719 C 26.242188 70.421875 26.308594 70.582031 26.386719 70.730469 C 26.398438 70.753906 26.398438 70.78125 26.386719 70.804688 L 25.964844 71.695312 C 25.929688 71.773438 25.941406 71.863281 25.996094 71.925781 C 26.097656 72.035156 26.203125 72.144531 26.308594 72.238281 C 26.371094 72.292969 26.464844 72.304688 26.539062 72.269531 L 27.429688 71.847656 C 27.453125 71.835938 27.480469 71.835938 27.503906 71.847656 C 27.582031 71.890625 27.660156 71.925781 27.734375 71.957031 C 27.8125 71.992188 27.894531 72.019531 27.972656 72.042969 C 28 72.050781 28.019531 72.070312 28.027344 72.09375 L 28.359375 73.027344 C 28.386719 73.105469 28.460938 73.160156 28.542969 73.164062 C 28.613281 73.167969 28.683594 73.171875 28.757812 73.171875 C 28.832031 73.171875 28.910156 73.167969 28.984375 73.164062 C 29.070312 73.15625 29.140625 73.101562 29.167969 73.023438 L 29.5 72.09375 C 29.507812 72.070312 29.527344 72.050781 29.554688 72.042969 C 29.714844 71.992188 29.871094 71.929688 30.019531 71.847656 C 30.046875 71.835938 30.074219 71.835938 30.097656 71.847656 L 30.988281 72.269531 C 31.015625 72.285156 31.046875 72.289062 31.078125 72.289062 C 31.128906 72.289062 31.179688 72.273438 31.214844 72.238281 C 31.328125 72.140625 31.433594 72.035156 31.53125 71.925781 C 31.585938 71.863281 31.597656 71.773438 31.5625 71.695312 L 31.136719 70.804688 C 31.128906 70.78125 31.128906 70.753906 31.140625 70.730469 C 31.183594 70.652344 31.21875 70.578125 31.25 70.5 C 31.28125 70.421875 31.3125 70.339844 31.335938 70.261719 C 31.34375 70.234375 31.359375 70.214844 31.382812 70.207031 L 32.316406 69.875 C 32.394531 69.847656 32.449219 69.773438 32.453125 69.691406 C 32.464844 69.550781 32.464844 69.402344 32.453125 69.25 C 32.449219 69.164062 32.394531 69.09375 32.316406 69.066406 L 31.382812 68.734375 C 31.359375 68.726562 31.34375 68.707031 31.335938 68.679688 C 31.285156 68.519531 31.21875 68.363281 31.140625 68.210938 C 31.128906 68.1875 31.128906 68.160156 31.136719 68.136719 L 31.5625 67.246094 C 31.597656 67.167969 31.585938 67.078125 31.53125 67.015625 C 31.429688 66.90625 31.324219 66.796875 31.21875 66.703125 C 31.15625 66.648438 31.0625 66.636719 30.988281 66.671875 L 30.097656 67.09375 C 30.074219 67.105469 30.046875 67.105469 30.023438 67.09375 C 29.941406 67.050781 29.867188 67.015625 29.792969 66.984375 C 29.714844 66.953125 29.632812 66.921875 29.554688 66.898438 C 29.527344 66.890625 29.507812 66.871094 29.5 66.847656 L 29.167969 65.917969 C 29.140625 65.835938 29.066406 65.78125 28.984375 65.777344 C 28.84375 65.769531 28.695312 65.769531 28.539062 65.777344 C 28.457031 65.785156 28.386719 65.839844 28.359375 65.917969 L 28.027344 66.847656 C 28.019531 66.871094 28 66.890625 27.972656 66.898438 C 27.8125 66.949219 27.65625 67.011719 27.503906 67.09375 C 27.480469 67.105469 27.453125 67.105469 27.429688 67.09375 L 26.539062 66.671875 C 26.464844 66.636719 26.371094 66.648438 26.3125 66.703125 C 26.199219 66.800781 26.09375 66.90625 25.996094 67.015625 C 25.941406 67.078125 25.929688 67.167969 25.964844 67.246094 L 26.386719 68.136719 C 26.398438 68.160156 26.398438 68.1875 26.386719 68.210938 C 26.34375 68.289062 26.308594 68.363281 26.277344 68.441406 C 26.246094 68.519531 26.214844 68.601562 26.191406 68.679688 C 26.183594 68.707031 26.167969 68.726562 26.140625 68.734375 L 25.210938 69.066406 C 25.128906 69.09375 25.074219 69.167969 25.070312 69.25 C 25.0625 69.390625 25.0625 69.535156 25.070312 69.695312 C 25.078125 69.777344 25.132812 69.847656 25.210938 69.875 Z M 27.269531 68.851562 C 27.519531 68.246094 28.105469 67.851562 28.765625 67.851562 C 28.976562 67.851562 29.183594 67.894531 29.382812 67.976562 C 30.207031 68.316406 30.597656 69.265625 30.257812 70.089844 C 30.007812 70.699219 29.417969 71.089844 28.761719 71.089844 C 28.550781 71.089844 28.34375 71.046875 28.144531 70.964844 C 27.320312 70.625 26.925781 69.675781 27.269531 68.851562 Z M 27.269531 68.851562 "/>
</g>
<g clip-path="url(#clip8)" clip-rule="nonzero">
<path style=" stroke:none;fill-rule:nonzero;fill:rgb(52.156863%,69.803922%,92.156863%);fill-opacity:1;" d="M 51.660156 51.449219 C 51.183594 47.855469 51.632812 47.246094 53.285156 44.742188 C 51.097656 46.851562 49.617188 46.878906 46.496094 47.257812 C 50.609375 47.601562 50.679688 48.238281 51.660156 51.449219 Z M 46.664062 49.949219 C 46.675781 51.109375 46.539062 52.15625 46.003906 52.820312 C 43.699219 55.777344 43.195312 53.753906 43.011719 52.085938 C 42.5625 48.179688 42.328125 44.386719 43.179688 40.707031 C 43.851562 37.820312 44.957031 40.382812 44.957031 40.707031 C 45.042969 45.335938 49.363281 42.671875 50.175781 43.253906 C 51.253906 44.046875 51.632812 44.074219 51.53125 43.835938 C 51.40625 43.523438 50.441406 42.746094 49.226562 42.648438 C 44.71875 42.292969 44.507812 37.058594 50.261719 38.65625 C 50.640625 38.003906 47.179688 37.835938 47.195312 37.523438 C 47.292969 34.652344 46.160156 34.167969 46.230469 34.410156 C 46.875 36.601562 46.480469 38.371094 45.070312 38.457031 C 43.445312 38.570312 43.429688 37.847656 43.222656 36.546875 C 42.816406 34.113281 42.789062 30.488281 43.808594 28.378906 C 44.691406 26.554688 44.84375 27.09375 46.566406 28.308594 C 48.832031 29.910156 48.484375 31.765625 48.625 30.53125 C 48.453125 28.296875 47.519531 28.042969 46.453125 27.433594 C 45.027344 26.613281 45.78125 26.371094 46.816406 25.917969 C 49.882812 24.589844 52.582031 25.707031 55.003906 28.90625 C 56.402344 30.773438 55.929688 29.796875 55.226562 30.886719 C 54.359375 32.214844 55.507812 33.191406 53.296875 33.078125 C 52.007812 33.023438 51.1875 30.273438 48.71875 34.019531 C 48.664062 34.09375 48.636719 34.144531 48.636719 34.140625 C 48.664062 34.097656 48.691406 34.058594 48.71875 34.019531 C 49.054688 33.554688 50.429688 32.023438 52.636719 33.941406 C 53.589844 34.777344 56.332031 32.726562 56.613281 36.871094 C 56.640625 37.367188 58.503906 35.273438 56.222656 33.363281 C 56.039062 33.207031 56.039062 30.234375 57.1875 32.527344 C 59.523438 32.851562 61.398438 34.523438 62.617188 36.730469 C 63.945312 39.148438 64.15625 40.792969 62.910156 43.339844 C 62.28125 44.613281 61.527344 45.578125 60.25 44.003906 C 59.035156 42.503906 58.195312 39.449219 55.285156 41.117188 C 55.117188 41.34375 56.601562 40.367188 58.402344 42.730469 C 58.9375 43.4375 59.285156 43.890625 59.554688 44.214844 C 60.265625 45.09375 62.195312 45.476562 59.257812 45.152344 C 57.257812 44.910156 55.199219 45.066406 55.199219 50.289062 C 55.257812 53.472656 50.75 53.925781 50.402344 52.210938 C 50.402344 55.539062 56.363281 54.660156 56.277344 49.933594 C 56.234375 46.964844 57.257812 45.660156 60.574219 45.945312 C 57.636719 48.265625 60.921875 49.113281 61.246094 50.472656 C 61.777344 52.75 59.578125 53.246094 59.554688 53.332031 C 60.613281 53.910156 63.132812 51.109375 61.707031 49.664062 C 60.726562 48.6875 60.53125 47.839844 60.753906 47.203125 C 61.355469 45.578125 63.792969 46.15625 64.628906 47.273438 C 65.007812 47.785156 65.234375 48.519531 65.554688 49.609375 C 66.492188 52.804688 66.589844 57.152344 65.207031 60.519531 C 64.589844 62.019531 64.070312 63.519531 62.324219 62.457031 C 61.539062 61.992188 61.636719 60.972656 60.921875 60.109375 C 59.636719 58.550781 57.117188 58.113281 56.152344 59.996094 C 54.613281 62.953125 53.285156 60.691406 53.085938 60.605469 C 53.074219 60.605469 53.214844 62.515625 54.597656 62.246094 C 55.773438 62.019531 56.640625 60.007812 57.84375 60.007812 C 63.34375 60.007812 57.957031 64.257812 57.957031 66.066406 C 57.957031 66.460938 57.902344 67.015625 58.460938 67.300781 C 58.363281 66.378906 59.074219 64.398438 60.320312 63.859375 C 62.980469 62.683594 62.996094 64.90625 62.390625 66.4375 C 60.027344 71.019531 58.445312 72.449219 56.824219 72.859375 C 54.949219 73.46875 53.003906 73.398438 52.875 70.3125 C 52.792969 68.304688 52.066406 67.015625 50.132812 67.652344 C 48.75 68.117188 45.976562 65.074219 47.671875 67.710938 C 49.085938 69.59375 52.039062 67.597656 51.324219 69.5625 C 50.917969 70.738281 50.316406 70.453125 49.070312 70.371094 C 47.558594 70.253906 46.410156 70.101562 49.308594 71.390625 C 50.847656 72.082031 51.507812 69.351562 52.109375 72.378906 C 52.304688 73.425781 53.578125 72.125 53.351562 74.332031 C 53.296875 74.347656 53.253906 74.359375 53.199219 74.375 C 46.523438 75.84375 44.03125 71.882812 43.527344 66.917969 C 43.109375 62.644531 44.339844 65.980469 45.824219 64.085938 C 46.761719 62.898438 47.699219 59.996094 49.898438 61.964844 C 49.910156 60.875 47.417969 59.601562 46.523438 61.199219 C 46.175781 61.933594 45.824219 62.5 45.488281 62.914062 C 43.964844 64.835938 43.390625 64 43.050781 62.34375 C 42.71875 60.644531 42.816406 59.003906 43.109375 57.378906 C 43.949219 52.75 49.113281 55.03125 49.699219 57.449219 C 49.964844 53.855469 45.976562 54.292969 46.355469 53.839844 C 47.796875 51.84375 46.664062 49.695312 46.664062 49.949219 "/>
</g>
<path style=" stroke:none;fill-rule:nonzero;fill:rgb(100%,100%,100%);fill-opacity:1;" d="M 84.84375 38.929688 L 92.882812 58.859375 L 88.007812 58.859375 L 86.535156 54.871094 L 78.949219 54.871094 L 77.476562 58.859375 L 72.601562 58.859375 L 80.640625 38.929688 Z M 84.988281 50.886719 L 82.765625 45.089844 L 82.71875 45.089844 L 80.496094 50.886719 Z M 84.988281 50.886719 "/>
<path style=" stroke:none;fill-rule:nonzero;fill:rgb(100%,100%,100%);fill-opacity:1;" d="M 93.65625 38.929688 L 100.78125 38.929688 C 102.695312 38.929688 104.257812 39.441406 105.464844 40.464844 C 106.671875 41.488281 107.273438 42.949219 107.273438 44.847656 C 107.273438 46.3125 106.90625 47.542969 106.175781 48.53125 C 105.441406 49.523438 104.449219 50.21875 103.195312 50.621094 L 110.050781 58.859375 L 104.28125 58.859375 L 98.195312 50.984375 L 98.195312 58.859375 L 93.65625 58.859375 Z M 98.195312 47.769531 L 98.726562 47.769531 C 99.144531 47.769531 99.5 47.765625 99.789062 47.75 C 100.078125 47.730469 100.40625 47.675781 100.777344 47.578125 C 101.148438 47.484375 101.445312 47.34375 101.671875 47.167969 C 101.898438 46.992188 102.089844 46.734375 102.25 46.394531 C 102.410156 46.058594 102.492188 45.644531 102.492188 45.164062 C 102.492188 44.679688 102.410156 44.269531 102.25 43.929688 C 102.089844 43.59375 101.898438 43.335938 101.671875 43.160156 C 101.445312 42.980469 101.148438 42.84375 100.777344 42.746094 C 100.40625 42.652344 100.078125 42.59375 99.789062 42.578125 C 99.5 42.5625 99.144531 42.554688 98.726562 42.554688 L 98.195312 42.554688 Z M 98.195312 47.769531 "/>
<path style=" stroke:none;fill-rule:nonzero;fill:rgb(100%,100%,100%);fill-opacity:1;" d="M 121.542969 54.753906 C 122.238281 54.753906 122.910156 54.648438 123.5625 54.4375 C 124.210938 54.230469 124.691406 54.027344 124.996094 53.835938 L 125.457031 53.519531 L 127.386719 57.382812 C 127.324219 57.433594 127.234375 57.5 127.121094 57.578125 C 127.007812 57.660156 126.746094 57.808594 126.335938 58.027344 C 125.925781 58.242188 125.488281 58.433594 125.019531 58.59375 C 124.554688 58.753906 123.941406 58.898438 123.183594 59.027344 C 122.429688 59.15625 121.648438 59.222656 120.84375 59.222656 C 118.992188 59.222656 117.238281 58.765625 115.578125 57.855469 C 113.921875 56.945312 112.585938 55.695312 111.574219 54.097656 C 110.558594 52.507812 110.050781 50.78125 110.050781 48.929688 C 110.050781 47.53125 110.347656 46.183594 110.945312 44.898438 C 111.539062 43.609375 112.332031 42.503906 113.320312 41.589844 C 114.3125 40.671875 115.464844 39.9375 116.785156 39.390625 C 118.109375 38.84375 119.460938 38.566406 120.84375 38.566406 C 122.132812 38.566406 123.316406 38.722656 124.40625 39.027344 C 125.492188 39.332031 126.261719 39.640625 126.710938 39.945312 L 127.386719 40.40625 L 125.457031 44.269531 C 125.34375 44.171875 125.175781 44.054688 124.949219 43.917969 C 124.722656 43.78125 124.273438 43.601562 123.597656 43.375 C 122.921875 43.148438 122.238281 43.039062 121.542969 43.039062 C 120.449219 43.039062 119.464844 43.214844 118.597656 43.570312 C 117.730469 43.921875 117.042969 44.390625 116.535156 44.96875 C 116.027344 45.550781 115.640625 46.171875 115.375 46.839844 C 115.109375 47.511719 114.976562 48.191406 114.976562 48.882812 C 114.976562 50.394531 115.542969 51.753906 116.679688 52.953125 C 117.8125 54.152344 119.433594 54.753906 121.542969 54.753906 Z M 121.542969 54.753906 "/>
</g>
</svg>
